<?xml version="1.0"?>
<svg xmlns="http://www.w3.org/2000/svg" xmlns:xlink="http://www.w3.org/1999/xlink" version="1.1" id="Capa_1" x="0px" y="0px" viewBox="0 0 512 512" style="enable-background:new 0 0 512 512;" xml:space="preserve" width="512px" height="512px" class=""><g><path style="fill:#00AF80" d="M256,0v46.358c115.782,0,209.642,93.86,209.642,209.642S371.782,465.642,256,465.642V512  c141.385,0,256-114.615,256-256S397.385,0,256,0z" data-original="#E0230D" class="active-path" data-old_color="#E0230D"/><path style="fill:#00AF80" d="M256,0C114.615,0,0,114.615,0,256s114.615,256,256,256c124.316,0,225.095-114.615,225.095-256  S380.316,0,256,0z M256,450.189c-107.248,0-194.189-86.941-194.189-194.189S148.752,61.811,256,61.811S450.189,148.752,450.189,256  S363.248,450.189,256,450.189z" data-original="#FF5440" class="" data-old_color="#FF5440"/></g> </svg>
